<svg width="64" height="64" viewBox="0 0 64 64" fill="none" xmlns="http://www.w3.org/2000/svg">
<rect width="64" height="64" rx="12" fill="url(#paint0_linear_1992_52662)"/>
<g clip-path="url(#clip0_1992_52662)">
<path d="M29.4038 20.0576C29.3461 20.0612 29.2885 20.072 29.2308 20.0865C28.9098 20.1514 28.6466 20.3821 28.5385 20.6922L24.0961 32.8653C23.9591 33.179 24.0096 33.5432 24.226 33.81C24.4387 34.0768 24.7812 34.2031 25.1202 34.1381C25.4555 34.0732 25.726 33.8281 25.8269 33.4999L30.0096 22.048L41.8077 24.4134C41.5048 25.3653 39.7272 31.0516 37.6538 36.5288C36.7776 38.8437 36.0637 40.3329 35.3461 41.1153C34.8702 41.6345 34.3942 41.9014 33.7308 42.0095C30.4423 42.4711 30.8461 38.2884 30.8461 38.2884L20.3461 34.048C19.2536 38.7788 22.8846 39.9038 22.8846 39.9038L30.5865 43.3942C30.5865 43.3942 31.3257 43.7475 32.1731 43.8845C32.1911 43.8845 32.2127 43.8845 32.2308 43.8845C32.494 43.9242 32.7464 43.9675 33.0096 43.9422C33.0385 43.935 33.0673 43.9206 33.0961 43.9134C34.5529 43.8665 35.7752 43.3653 36.7019 42.3557C37.762 41.2018 38.4904 39.5576 39.3846 37.1922C41.6562 31.1922 43.9135 23.9807 43.9135 23.9807C43.9928 23.7319 43.9603 23.4615 43.8305 23.2343C43.6971 23.0107 43.4772 22.8521 43.2211 22.798L29.5769 20.0865C29.5192 20.072 29.4615 20.0612 29.4038 20.0576ZM30.7596 25.1634C30.2692 25.2067 29.8978 25.6213 29.9123 26.1153C29.9303 26.6057 30.3269 26.9987 30.8173 27.0095C30.8786 27.024 30.9327 27.0312 30.9615 27.0384C31.4627 27.143 31.9531 26.8184 32.0577 26.3172C32.1622 25.816 31.8377 25.3256 31.3365 25.2211C31.2752 25.2067 31.25 25.1994 31.2211 25.1922C31.1274 25.167 31.03 25.1562 30.9327 25.1634C30.875 25.1562 30.8173 25.1562 30.7596 25.1634ZM33.7596 26.0288C33.3089 26.0648 32.9483 26.4254 32.9123 26.8761C32.8762 27.3268 33.1755 27.7379 33.6154 27.8461L37.6538 28.9711C38.1478 29.1081 38.6562 28.816 38.7933 28.322C38.9303 27.8281 38.6382 27.3196 38.1442 27.1826L34.1058 26.0865C34.0228 26.054 33.9363 26.036 33.8461 26.0288C33.8173 26.0288 33.7885 26.0288 33.7596 26.0288ZM29.4038 28.9999C28.9639 29.072 28.6358 29.4506 28.6286 29.8978C28.6214 30.3449 28.9351 30.7307 29.375 30.8172C29.4363 30.8317 29.4904 30.8389 29.5192 30.8461C29.8582 30.9687 30.2404 30.8857 30.4928 30.6261C30.7488 30.3701 30.8281 29.9879 30.6983 29.649C30.5685 29.3136 30.2548 29.0793 29.8942 29.0576C29.8329 29.0432 29.8077 29.036 29.7788 29.0288C29.6562 28.9927 29.53 28.9855 29.4038 28.9999ZM32.0865 29.8365C31.6647 29.905 31.3437 30.2511 31.3113 30.673C31.2752 31.0985 31.5385 31.4915 31.9423 31.6249L35.9808 32.9518C36.4675 33.1105 36.9904 32.8473 37.149 32.3605C37.3077 31.8737 37.0445 31.3509 36.5577 31.1922L32.5192 29.8942C32.3822 29.8401 32.2344 29.822 32.0865 29.8365ZM27.9327 32.548C27.4928 32.6201 27.1647 32.9987 27.1574 33.4458C27.1502 33.893 27.4639 34.2788 27.9038 34.3653C27.9651 34.3797 28.0192 34.3869 28.0481 34.3942C28.3834 34.5131 28.7584 34.4266 29.0108 34.1778C29.2596 33.9254 29.3461 33.5504 29.2272 33.2151C29.1082 32.8797 28.8053 32.6418 28.4519 32.6057C28.3906 32.5913 28.3365 32.5841 28.3077 32.5768C28.1851 32.5408 28.0589 32.5336 27.9327 32.548ZM30.5577 33.5576C30.1394 33.6333 29.8293 33.9831 29.8005 34.405C29.7716 34.8305 30.0385 35.2163 30.4423 35.3461L34.4519 36.673C34.9387 36.8317 35.4615 36.5684 35.6202 36.0817C35.7788 35.5949 35.5156 35.072 35.0288 34.9134L31.0192 33.6153C30.8714 33.5576 30.7127 33.536 30.5577 33.5576Z" fill="white"/>
</g>
<defs>
<linearGradient id="paint0_linear_1992_52662" x1="32" y1="0" x2="32" y2="64" gradientUnits="userSpaceOnUse">
<stop stop-color="#7B61FF"/>
<stop offset="1" stop-color="#5938FF"/>
</linearGradient>
<clipPath id="clip0_1992_52662">
<rect width="24" height="24" fill="white" transform="translate(20 20)"/>
</clipPath>
</defs>
</svg>
