<svg width="64" height="64" viewBox="0 0 64 64" fill="none" xmlns="http://www.w3.org/2000/svg">
<rect width="64" height="64" rx="12" fill="url(#paint0_linear_2330_29649)"/>
<path d="M32 21.5C31.0575 21.5 30.3946 22.17 30.062 23H28.25H27.5H23.75V41.75H40.25V23H36.5H35.75H33.938C33.6054 22.17 32.9425 21.5 32 21.5ZM32 23C32.4238 23 32.75 23.3262 32.75 23.75V24.5H33.5H35V26H29V24.5H31.25V23.75C31.25 23.3262 31.5762 23 32 23ZM25.25 24.5H27.5V27.5H36.5V24.5H38.75V40.25H25.25V24.5ZM29.5303 29.9697L28.4697 31.0303L30.9395 33.5L28.4697 35.9697L29.5303 37.0303L32 34.5605L34.4697 37.0303L35.5303 35.9697L33.0605 33.5L35.5303 31.0303L34.4697 29.9697L32 32.4395L29.5303 29.9697Z" fill="white"/>
<defs>
<linearGradient id="paint0_linear_2330_29649" x1="32" y1="0" x2="32" y2="64" gradientUnits="userSpaceOnUse">
<stop stop-color="#305AA7"/>
<stop offset="1" stop-color="#12377A"/>
</linearGradient>
</defs>
</svg>
