<svg width="64" height="64" viewBox="0 0 64 64" fill="none" xmlns="http://www.w3.org/2000/svg">
<rect width="64" height="64" rx="12" fill="url(#paint0_linear_1053_22089)"/>
<path d="M35 34C32.33 34 27 35.33 27 38V40H43V38C43 35.33 37.67 34 35 34ZM26 30V27H24V30H21V32H24V35H26V32H29V30H26ZM35 32C36.0609 32 37.0783 31.5786 37.8284 30.8284C38.5786 30.0783 39 29.0609 39 28C39 26.9391 38.5786 25.9217 37.8284 25.1716C37.0783 24.4214 36.0609 24 35 24C33.9391 24 32.9217 24.4214 32.1716 25.1716C31.4214 25.9217 31 26.9391 31 28C31 29.0609 31.4214 30.0783 32.1716 30.8284C32.9217 31.5786 33.9391 32 35 32Z" fill="white"/>
<defs>
<linearGradient id="paint0_linear_1053_22089" x1="32" y1="0" x2="32" y2="64" gradientUnits="userSpaceOnUse">
<stop stop-color="#439DEE"/>
<stop offset="1" stop-color="#1E78E9"/>
</linearGradient>
</defs>
</svg>
