<svg width="164" height="164" viewBox="0 0 164 164" fill="none" xmlns="http://www.w3.org/2000/svg">
<g id="icons8_thumbs_up 1">
<path id="Vector" d="M151.188 51.25H155.031C160.587 51.25 165.005 46.1301 163.8 40.3773C162.924 36.1876 159.019 33.3125 154.737 33.3125H135.813C132.981 33.3125 130.688 31.0191 130.688 28.1875C130.688 25.3559 132.981 23.0625 135.813 23.0625H144.487C148.766 23.0625 152.674 20.1874 153.55 15.9977C154.755 10.2449 150.337 5.125 144.781 5.125H87.1404H83.2813H21.7813C16.8484 5.125 12.8125 9.16094 12.8125 14.0938C12.8125 19.0266 16.8484 23.0625 21.7813 23.0625H25.625C28.4566 23.0625 30.75 25.3559 30.75 28.1875C30.75 31.0191 28.4566 33.3125 25.625 33.3125H11.8259C7.54657 33.3125 3.63876 36.1876 2.76239 40.3773C1.55801 46.1301 5.97576 51.25 11.5313 51.25H46.125V82H11.8259C7.54657 82 3.63876 84.8751 2.76239 89.0648C1.55801 94.8176 5.97576 99.9375 11.5313 99.9375H12.8125C15.6441 99.9375 17.9375 102.231 17.9375 105.062C17.9375 107.894 15.6441 110.188 12.8125 110.188H11.5313C5.97576 110.188 1.55801 115.307 2.76239 121.06C3.63876 125.25 7.54657 128.125 11.8259 128.125H25.625C28.4566 128.125 30.75 130.418 30.75 133.25C30.75 136.082 28.4566 138.375 25.625 138.375H22.0759C17.7966 138.375 13.8888 141.25 13.0124 145.44C11.808 151.193 16.2258 156.312 21.7813 156.312H79.4221H83.2813H142.219C147.152 156.312 151.188 152.277 151.188 147.344C151.188 142.411 147.152 138.375 142.219 138.375H140.938C138.106 138.375 135.813 136.082 135.813 133.25C135.813 130.418 138.106 128.125 140.938 128.125H152.174C156.453 128.125 160.361 125.25 161.238 121.06C162.442 115.307 158.024 110.188 152.469 110.188H120.438V79.4375H152.174C156.453 79.4375 160.361 76.5624 161.238 72.3727C162.442 66.6199 158.024 61.5 152.469 61.5H151.188C148.356 61.5 146.063 59.2066 146.063 56.375C146.063 53.5434 148.356 51.25 151.188 51.25Z" fill="url(#paint0_radial_1659_27249)"/>
<path id="Vector_2" d="M146.062 79.4375C146.062 114.813 117.375 143.5 82 143.5C46.6247 143.5 17.9375 114.813 17.9375 79.4375C17.9375 44.0622 46.6247 15.375 82 15.375C117.375 15.375 146.062 44.0622 146.062 79.4375Z" fill="url(#paint1_linear_1659_27249)"/>
<path id="Vector_3" d="M94.8125 117.875H71.75C60.4289 117.875 51.25 108.696 51.25 97.375V78.1767C51.25 72.3573 53.2308 66.7121 56.8644 62.1688L68.8928 47.1321C70.7686 44.7848 72.0575 42.025 72.6469 39.0781L73.4079 35.2779C73.9332 32.6437 76.2446 30.75 78.9301 30.75C82.041 30.75 84.5625 33.2715 84.5625 36.3824V41.7662C84.5625 46.3556 83.8937 50.9194 82.574 55.3167L76.875 74.3125L94.8125 117.875Z" fill="white"/>
<path id="Vector_4" d="M107.625 76.875H102.5V71.75H107.625C110.444 71.75 112.75 69.4438 112.75 66.625C112.75 63.8062 110.444 61.5 107.625 61.5H102.5H99.9375H97.375H71.75V82V94.8125V117.875H89.0443H102.5C105.319 117.875 107.625 115.569 107.625 112.75C107.625 109.931 105.319 107.625 102.5 107.625H97.375V102.5H105.062C107.881 102.5 110.188 100.194 110.188 97.375C110.188 94.5562 107.881 92.25 105.062 92.25H99.9375V87.125H107.625C110.444 87.125 112.75 84.8188 112.75 82C112.75 79.1812 110.444 76.875 107.625 76.875Z" fill="white"/>
<path id="Vector_5" d="M89.6875 76.875H107.625C106.216 76.875 105.062 75.7219 105.062 74.3125C105.062 72.9031 106.216 71.75 107.625 71.75H89.6875C91.0969 71.75 92.25 72.9031 92.25 74.3125C92.25 75.7219 91.0969 76.875 89.6875 76.875ZM87.125 92.25H105.062C103.653 92.25 102.5 91.0969 102.5 89.6875C102.5 88.2781 103.653 87.125 105.062 87.125H87.125C88.5344 87.125 89.6875 88.2781 89.6875 89.6875C89.6875 91.0969 88.5344 92.25 87.125 92.25ZM84.5625 107.625H102.5C101.091 107.625 99.9375 106.472 99.9375 105.062C99.9375 103.653 101.091 102.5 102.5 102.5H84.5625C85.9719 102.5 87.125 103.653 87.125 105.062C87.125 106.472 85.9719 107.625 84.5625 107.625Z" fill="white"/>
</g>
<defs>
<radialGradient id="paint0_radial_1659_27249" cx="0" cy="0" r="1" gradientUnits="userSpaceOnUse" gradientTransform="translate(83.2813 80.7188) scale(78.1973)">
<stop stop-color="#AFEEFF"/>
<stop offset="0.193" stop-color="#BBF1FF"/>
<stop offset="0.703" stop-color="#D7F8FF"/>
<stop offset="1" stop-color="#E1FAFF"/>
</radialGradient>
<linearGradient id="paint1_linear_1659_27249" x1="82" y1="15.375" x2="82" y2="143.5" gradientUnits="userSpaceOnUse">
<stop stop-color="#42D778"/>
<stop offset="0.996" stop-color="#34B171"/>
<stop offset="1" stop-color="#34B171"/>
</linearGradient>
</defs>
</svg>
